<svg xmlns="http://www.w3.org/2000/svg" viewBox="0 0 1200 1200"><path fill="#0071FE" d="M728 1201H1V1h1200v1200H728M600.194 108.694L392.522 316.667l475.209 478.878-48.95 50.151-476.098-478.533-240.921 242.739 566.777 571.363 94.237-94.245-472.605-476.29 52.046-50.706 477.452 479.89c.66-.266.846-.287.95-.39 30.905-30.843 61.808-61.688 92.685-92.56.656-.655 1.623-2.103 1.425-2.346-2.836-3.461.781-4.624 2.308-6.155 45.432-45.545 90.93-91.025 136.41-136.521 1.258-1.26 2.44-2.595 3.816-4.064L581.997 317.713l67.238-67.329L771.943 374.3l11.344-14.156 46.151 46.192 26.922-26.931-45.968-45.662 82.175-82.117L674.9 33.96l-74.707 74.734z"/><path fill="#FFF" d="M600.444 108.444l74.457-74.484 217.666 217.666-82.175 82.117 45.968 45.662-26.922 26.93-46.15-46.19-11.345 14.155-122.708-123.916-67.238 67.329 475.266 480.165c-1.376 1.469-2.558 2.805-3.816 4.064-45.48 45.496-90.978 90.976-136.41 136.521-1.527 1.531-5.144 2.694-2.308 6.155.198.243-.769 1.69-1.425 2.347-30.877 30.87-61.78 61.716-92.685 92.558-.104.104-.29.125-.95.391l-477.452-479.89-52.046 50.706 472.605 476.29-94.237 94.245-566.777-571.363 240.921-242.739 476.099 478.533 48.949-50.151-475.209-478.878 207.922-208.223m127.897 108.702l14.601 15.558 18.338-19.615-18.428-19.485-18.167 19.449a929.391 929.391 0 003.656 4.093z"/><path fill="#0473FE" d="M728.1 216.884c-1.218-1.36-2.194-2.458-3.415-3.831l18.167-19.449 18.428 19.485-18.338 19.615a41225.87 41225.87 0 01-14.842-15.82z"/></svg>