<?xml version="1.0" encoding="UTF-8" standalone="no"?>
<!DOCTYPE svg PUBLIC "-//W3C//DTD SVG 1.1//EN" "http://www.w3.org/Graphics/SVG/1.1/DTD/svg11.dtd">
<svg width="100%" height="100%" viewBox="0 0 700 700" version="1.1" xmlns="http://www.w3.org/2000/svg" xmlns:xlink="http://www.w3.org/1999/xlink" xml:space="preserve" xmlns:serif="http://www.serif.com/" style="fill-rule:evenodd;clip-rule:evenodd;stroke-linejoin:round;stroke-miterlimit:2;">
    <path d="M338.8,187.6L377.3,149.1L447.3,219.799L454.3,212.799L480.902,239.401L496.3,224.003L469.698,197.401L517.3,149.799L392.7,25.199L253.4,164.499L230.998,187.604L502.598,461.304L474.598,490.003L202.298,216.303L147.696,270.905L118.298,301.003L64.4,354.901L118.298,409.503L389.198,682.503L443.096,628.605L172.196,355.605L201.594,326.207L475.294,601.307L529.896,546.705L528.498,545.307L611.096,462.709L338.8,187.6ZM431.198,116.897L441.698,128.096L431.198,139.295L420.698,128.096L431.198,116.897Z" style="fill:white;fill-rule:nonzero;"/>
</svg>
